# xmcd CD database file
#
# Track frame offsets:
#	150
#	20104
#	39555
#	58128
#	78196
#	100577
#
# Disc length: 1621 seconds
#
# Revision: 0
# Processed by: cddbd v1.5.2PL0 Copyright (c) Steve Scherf et al.
# Submitted via: CDex 1.51
#
DISCID=43065306
DTITLE=Isul Kim - Self Titled (EP)
DYEAR=2006
DGENRE=Blues
TTITLE0=01 - Sunshine After Hurricane
TTITLE1=02 - Cigarettes and Heartbreak
TTITLE2=03 - This Fever
TTITLE3=04 - Tiger Eye Lenses
TTITLE4=05 - Mr. Moviestar
TTITLE5=06 - In Blue
EXTD=YEAR: 2006
EXTT0=
EXTT1=
EXTT2=
EXTT3=
EXTT4=
EXTT5=
PLAYORDER=
